{
    "accessors" : [
        {
            "bufferView" : 0, 
            "componentType" : 5123, 
            "count" : 29520, 
            "max" : [
                5280
            ], 
            "min" : [
                0
            ], 
            "type" : "SCALAR"
        }, 
        {
            "bufferView" : 1, 
            "componentType" : 5126, 
            "count" : 5281, 
            "max" : [
                1.899999976158142, 
                0.4404720962047577, 
                0.10000000149011612
            ], 
            "min" : [
                0.6000000238418579, 
                -0.20265540480613708, 
                -5.900001049041748
            ], 
            "type" : "VEC3"
        }, 
        {
            "bufferView" : 2, 
            "componentType" : 5126, 
            "count" : 5281, 
            "max" : [
                1.0, 
                1.0, 
                1.0
            ], 
            "min" : [
                -1.0, 
                -1.0, 
                -1.0
            ], 
            "type" : "VEC3"
        }, 
        {
            "bufferView" : 3, 
            "componentType" : 5126, 
            "count" : 5281, 
            "max" : [
                1.0, 
                0.9970897436141968, 
                1.0, 
                1.0
            ], 
            "min" : [
                -1.0, 
                -0.996917724609375, 
                -1.0, 
                1.0
            ], 
            "type" : "VEC4"
        }, 
        {
            "bufferView" : 4, 
            "componentType" : 5126, 
            "count" : 5281, 
            "max" : [
                1.0, 
                1.0
            ], 
            "min" : [
                0.0, 
                0.0
            ], 
            "type" : "VEC2"
        }
    ], 
    "asset" : {
        "generator" : "Khronos Blender glTF 2.0 exporter", 
        "version" : "2.0"
    }, 
    "bufferViews" : [
        {
            "buffer" : 0, 
            "byteLength" : 59040, 
            "byteOffset" : 0, 
            "target" : 34963
        }, 
        {
            "buffer" : 0, 
            "byteLength" : 63372, 
            "byteOffset" : 59040, 
            "target" : 34962
        }, 
        {
            "buffer" : 0, 
            "byteLength" : 63372, 
            "byteOffset" : 122412, 
            "target" : 34962
        }, 
        {
            "buffer" : 0, 
            "byteLength" : 84496, 
            "byteOffset" : 185784, 
            "target" : 34962
        }, 
        {
            "buffer" : 0, 
            "byteLength" : 42248, 
            "byteOffset" : 270280, 
            "target" : 34962
        }
    ], 
    "buffers" : [
        {
            "byteLength" : 312528, 
            "uri" : "issue.bin"
        }
    ], 
    "cameras" : [
        {
            "name" : "Camera", 
            "perspective" : {
                "aspectRatio" : 1.7777777777777777, 
                "yfov" : 0.5033799372418416, 
                "zfar" : 100.0, 
                "znear" : 0.10000000149011612
            }, 
            "type" : "perspective"
        }
    ], 
    "materials" : [
        {
            "alphaMode" : "BLEND", 
            "name" : "lambert2", 
            "pbrMetallicRoughness" : {
                "baseColorFactor" : [
                    0.800000011920929, 
                    0.0, 
                    0.0, 
                    1.0
                ], 
                "metallicFactor" : 0.0
            }
        }
    ], 
    "meshes" : [
        {
            "name" : "polySurfaceShape1", 
            "primitives" : [
                {
                    "attributes" : {
                        "NORMAL" : 2, 
                        "POSITION" : 1, 
                        "TANGENT" : 3, 
                        "TEXCOORD_0" : 4
                    }, 
                    "indices" : 0, 
                    "material" : 0
                }
            ]
        }
    ], 
    "nodes" : [
        {
            "camera" : 0, 
            "name" : "Correction_Camera", 
            "rotation" : [
                -0.7071067690849304, 
                -0.0, 
                0.0, 
                0.7071067690849304
            ]
        }, 
        {
            "children" : [
                0
            ], 
            "name" : "Camera", 
            "rotation" : [
                0.483536034822464, 
                0.33687159419059753, 
                -0.20870360732078552, 
                0.7804827094078064
            ], 
            "translation" : [
                7.481131553649902, 
                5.34366512298584, 
                6.5076398849487305
            ]
        }, 
        {
            "name" : "Char_x_1"
        }, 
        {
            "name" : "Char_x_2"
        }, 
        {
            "name" : "Lamp", 
            "rotation" : [
                0.16907575726509094, 
                0.7558802962303162, 
                -0.27217137813568115, 
                0.570947527885437
            ], 
            "scale" : [
                1.0, 
                1.0, 
                0.9999999403953552
            ], 
            "translation" : [
                4.076245307922363, 
                5.903861999511719, 
                -1.0054539442062378
            ]
        }, 
        {
            "mesh" : 0, 
            "name" : "polySurface1", 
            "scale" : [
                0.005890000145882368, 
                0.005828664172440767, 
                0.005828664172440767
            ], 
            "translation" : [
                0.0, 
                -8.742277457507441e-10, 
                0.019999999552965164
            ]
        }, 
        {
            "name" : "pSphere1", 
            "rotation" : [
                0.7071068286895752, 
                0.0, 
                -0.0, 
                0.7071067094802856
            ], 
            "scale" : [
                0.003904680022969842, 
                0.003904680022969842, 
                0.003904680022969842
            ]
        }, 
        {
            "children" : [
                2
            ], 
            "name" : "Text_x_1", 
            "rotation" : [
                0.7071068286895752, 
                0.0, 
                -0.0, 
                0.7071067094802856
            ], 
            "scale" : [
                0.009999999776482582, 
                0.009999999776482582, 
                0.009999999776482582
            ]
        }, 
        {
            "children" : [
                3
            ], 
            "name" : "Text_x_2", 
            "rotation" : [
                0.7071068286895752, 
                0.0, 
                -0.0, 
                0.7071067094802856
            ], 
            "scale" : [
                0.009999999776482582, 
                0.009999999776482582, 
                0.009999999776482582
            ]
        }, 
        {
            "name" : "Trim_Text_x_1_1", 
            "rotation" : [
                0.7071068286895752, 
                0.0, 
                -0.0, 
                0.7071067094802856
            ], 
            "scale" : [
                0.009999999776482582, 
                0.009999999776482582, 
                0.009999999776482582
            ]
        }, 
        {
            "name" : "Trim_Text_x_2_1", 
            "rotation" : [
                0.7071068286895752, 
                0.0, 
                -0.0, 
                0.7071067094802856
            ], 
            "scale" : [
                0.009999999776482582, 
                0.009999999776482582, 
                0.009999999776482582
            ]
        }
    ], 
    "scene" : 0, 
    "scenes" : [
        {
            "name" : "Scene", 
            "nodes" : [
                5, 
                6, 
                10, 
                8, 
                9, 
                7, 
                4, 
                1
            ]
        }
    ]
}
