{
    "accessors" : [
        {
            "bufferView" : 0, 
            "componentType" : 5121, 
            "count" : 132, 
            "max" : [
                71
            ], 
            "min" : [
                0
            ], 
            "type" : "SCALAR"
        }, 
        {
            "bufferView" : 1, 
            "componentType" : 5126, 
            "count" : 72, 
            "max" : [
                0.029527559876441956, 
                0.19685038924217224, 
                -0.0
            ], 
            "min" : [
                -0.029527559876441956, 
                -0.13779526948928833, 
                -0.023622047156095505
            ], 
            "type" : "VEC3"
        }, 
        {
            "bufferView" : 2, 
            "componentType" : 5126, 
            "count" : 72, 
            "max" : [
                1.0, 
                1.0, 
                1.0
            ], 
            "min" : [
                -1.0, 
                -1.0, 
                -1.0
            ], 
            "type" : "VEC3"
        }, 
        {
            "bufferView" : 3, 
            "componentType" : 5126, 
            "count" : 72, 
            "max" : [
                1.0, 
                1.0, 
                -0.0, 
                1.0
            ], 
            "min" : [
                -1.0, 
                -1.0, 
                -0.0, 
                1.0
            ], 
            "type" : "VEC4"
        }, 
        {
            "bufferView" : 4, 
            "componentType" : 5126, 
            "count" : 72, 
            "max" : [
                0.5, 
                1.0750000029802322
            ], 
            "min" : [
                -0.5, 
                0.9249999970197678
            ], 
            "type" : "VEC2"
        }, 
        {
            "bufferView" : 5, 
            "componentType" : 5123, 
            "count" : 212124, 
            "max" : [
                37069
            ], 
            "min" : [
                0
            ], 
            "type" : "SCALAR"
        }, 
        {
            "bufferView" : 6, 
            "componentType" : 5126, 
            "count" : 37070, 
            "max" : [
                0.11811023950576782, 
                0.3937007784843445, 
                0.1181056946516037
            ], 
            "min" : [
                -0.11811023950576782, 
                0.11811023950576782, 
                -0.1181056946516037
            ], 
            "type" : "VEC3"
        }, 
        {
            "bufferView" : 7, 
            "componentType" : 5126, 
            "count" : 37070, 
            "max" : [
                1.0, 
                0.999969482421875, 
                1.0
            ], 
            "min" : [
                -1.0, 
                -1.0, 
                -1.0
            ], 
            "type" : "VEC3"
        }, 
        {
            "bufferView" : 8, 
            "componentType" : 5126, 
            "count" : 37070, 
            "max" : [
                1.0, 
                1.0, 
                1.0, 
                1.0
            ], 
            "min" : [
                -1.0, 
                -1.0, 
                -1.0, 
                1.0
            ], 
            "type" : "VEC4"
        }, 
        {
            "bufferView" : 9, 
            "componentType" : 5126, 
            "count" : 37070, 
            "max" : [
                0.3724631667137146, 
                1.942477822303772
            ], 
            "min" : [
                -0.3707079291343689, 
                0.05752217769622803
            ], 
            "type" : "VEC2"
        }, 
        {
            "bufferView" : 10, 
            "componentType" : 5121, 
            "count" : 132, 
            "max" : [
                71
            ], 
            "min" : [
                0
            ], 
            "type" : "SCALAR"
        }, 
        {
            "bufferView" : 11, 
            "componentType" : 5126, 
            "count" : 72, 
            "max" : [
                0.023622047156095505, 
                0.19685038924217224, 
                -0.0
            ], 
            "min" : [
                -0.023622047156095505, 
                -0.13779526948928833, 
                -0.023622047156095505
            ], 
            "type" : "VEC3"
        }, 
        {
            "bufferView" : 12, 
            "componentType" : 5126, 
            "count" : 72, 
            "max" : [
                1.0, 
                1.0, 
                1.0
            ], 
            "min" : [
                -1.0, 
                -1.0, 
                -1.0
            ], 
            "type" : "VEC3"
        }, 
        {
            "bufferView" : 13, 
            "componentType" : 5126, 
            "count" : 72, 
            "max" : [
                1.0, 
                1.0, 
                -0.0, 
                1.0
            ], 
            "min" : [
                -1.0, 
                -1.0, 
                -0.0, 
                1.0
            ], 
            "type" : "VEC4"
        }, 
        {
            "bufferView" : 14, 
            "componentType" : 5126, 
            "count" : 72, 
            "max" : [
                0.5, 
                1.0599999986588955
            ], 
            "min" : [
                -0.5, 
                0.9400000013411045
            ], 
            "type" : "VEC2"
        }
    ], 
    "asset" : {
        "generator" : "Khronos Blender glTF 2.0 exporter", 
        "version" : "2.0"
    }, 
    "bufferViews" : [
        {
            "buffer" : 0, 
            "byteLength" : 132, 
            "byteOffset" : 0, 
            "target" : 34963
        }, 
        {
            "buffer" : 0, 
            "byteLength" : 864, 
            "byteOffset" : 132, 
            "target" : 34962
        }, 
        {
            "buffer" : 0, 
            "byteLength" : 864, 
            "byteOffset" : 996, 
            "target" : 34962
        }, 
        {
            "buffer" : 0, 
            "byteLength" : 1152, 
            "byteOffset" : 1860, 
            "target" : 34962
        }, 
        {
            "buffer" : 0, 
            "byteLength" : 576, 
            "byteOffset" : 3012, 
            "target" : 34962
        }, 
        {
            "buffer" : 0, 
            "byteLength" : 424248, 
            "byteOffset" : 3588, 
            "target" : 34963
        }, 
        {
            "buffer" : 0, 
            "byteLength" : 444840, 
            "byteOffset" : 427836, 
            "target" : 34962
        }, 
        {
            "buffer" : 0, 
            "byteLength" : 444840, 
            "byteOffset" : 872676, 
            "target" : 34962
        }, 
        {
            "buffer" : 0, 
            "byteLength" : 593120, 
            "byteOffset" : 1317516, 
            "target" : 34962
        }, 
        {
            "buffer" : 0, 
            "byteLength" : 296560, 
            "byteOffset" : 1910636, 
            "target" : 34962
        }, 
        {
            "buffer" : 0, 
            "byteLength" : 132, 
            "byteOffset" : 2207196, 
            "target" : 34963
        }, 
        {
            "buffer" : 0, 
            "byteLength" : 864, 
            "byteOffset" : 2207328, 
            "target" : 34962
        }, 
        {
            "buffer" : 0, 
            "byteLength" : 864, 
            "byteOffset" : 2208192, 
            "target" : 34962
        }, 
        {
            "buffer" : 0, 
            "byteLength" : 1152, 
            "byteOffset" : 2209056, 
            "target" : 34962
        }, 
        {
            "buffer" : 0, 
            "byteLength" : 576, 
            "byteOffset" : 2210208, 
            "target" : 34962
        }
    ], 
    "buffers" : [
        {
            "byteLength" : 2210784, 
            "uri" : "LedRed.bin"
        }
    ], 
    "cameras" : [
        {
            "name" : "Camera", 
            "perspective" : {
                "aspectRatio" : 1.7777777777777777, 
                "yfov" : 0.5033799372418416, 
                "zfar" : 100.0, 
                "znear" : 0.10000000149011612
            }, 
            "type" : "perspective"
        }
    ], 
    "materials" : [
        {
            "name" : "Material #36", 
            "pbrMetallicRoughness" : {
                "baseColorFactor" : [
                    0.800000011920929, 
                    0.0, 
                    0.0, 
                    1.0
                ], 
                "metallicFactor" : 0.0
            }
        }, 
        {
            "name" : "Material #37", 
            "pbrMetallicRoughness" : {
                "baseColorFactor" : [
                    0.6807843309757757, 
                    0.6807843309757757, 
                    0.6807843309757757, 
                    1.0
                ], 
                "metallicFactor" : 0.0
            }
        }
    ], 
    "meshes" : [
        {
            "name" : "Untitled.002", 
            "primitives" : [
                {
                    "attributes" : {
                        "NORMAL" : 2, 
                        "POSITION" : 1, 
                        "TANGENT" : 3, 
                        "TEXCOORD_0" : 4
                    }, 
                    "indices" : 0, 
                    "material" : 1
                }
            ]
        }, 
        {
            "name" : "Untitled", 
            "primitives" : [
                {
                    "attributes" : {
                        "NORMAL" : 7, 
                        "POSITION" : 6, 
                        "TANGENT" : 8, 
                        "TEXCOORD_0" : 9
                    }, 
                    "indices" : 5, 
                    "material" : 0
                }
            ]
        }, 
        {
            "name" : "Untitled.001", 
            "primitives" : [
                {
                    "attributes" : {
                        "NORMAL" : 12, 
                        "POSITION" : 11, 
                        "TANGENT" : 13, 
                        "TEXCOORD_0" : 14
                    }, 
                    "indices" : 10, 
                    "material" : 1
                }
            ]
        }
    ], 
    "nodes" : [
        {
            "camera" : 0, 
            "name" : "Correction_Camera", 
            "rotation" : [
                -0.7071067690849304, 
                -0.0, 
                0.0, 
                0.7071067690849304
            ]
        }, 
        {
            "children" : [
                0
            ], 
            "name" : "Camera", 
            "rotation" : [
                0.483536034822464, 
                0.33687159419059753, 
                -0.20870360732078552, 
                0.7804827094078064
            ], 
            "translation" : [
                7.481131553649902, 
                5.34366512298584, 
                6.5076398849487305
            ]
        }, 
        {
            "name" : "Lamp", 
            "rotation" : [
                0.16907575726509094, 
                0.7558802962303162, 
                -0.27217137813568115, 
                0.570947527885437
            ], 
            "scale" : [
                1.0, 
                1.0, 
                0.9999999403953552
            ], 
            "translation" : [
                4.076245307922363, 
                5.903861999511719, 
                -1.0054539442062378
            ]
        }, 
        {
            "children" : [
                7, 
                8, 
                9
            ], 
            "name" : "\u00c0\u00cb307\u00c1", 
            "translation" : [
                0.0, 
                0.1131889671087265, 
                1.862645149230957e-09
            ]
        }, 
        {
            "mesh" : 0, 
            "name" : "\u00c1\u00ee\u00e1\u00fb\u00f8\u00ea\u00e0-\u00c2\u00fb\u00f2\u00ff\u00ed\u00f3\u00f2\u00fc1"
        }, 
        {
            "mesh" : 2, 
            "name" : "\u00c1\u00ee\u00e1\u00fb\u00f8\u00ea\u00e0-\u00c2\u00fb\u00f2\u00ff\u00ed\u00f3\u00f2\u00fc1.001"
        }, 
        {
            "mesh" : 1, 
            "name" : "\u00c2\u00fb\u00f0\u00e5\u00e7-\u00c2\u00fb\u00f2\u00ff\u00ed\u00f3\u00f2\u00fc1", 
            "translation" : [
                0.0, 
                -0.3179614841938019, 
                -1.3898535655698652e-08
            ]
        }, 
        {
            "children" : [
                6
            ], 
            "name" : "\u00c4\u00e5\u00f2\u00e0\u00eb\u00fc1_1", 
            "translation" : [
                0.0, 
                0.25590550899505615, 
                -8.881784197001252e-16
            ]
        }, 
        {
            "children" : [
                4
            ], 
            "name" : "\u00c4\u00e5\u00f2\u00e0\u00eb\u00fc2_2", 
            "rotation" : [
                1.0, 
                0.0, 
                -0.0, 
                4.3312579123266914e-07
            ], 
            "translation" : [
                0.05000000447034836, 
                -0.02952754497528076, 
                2.5578298590289705e-08
            ]
        }, 
        {
            "children" : [
                5
            ], 
            "name" : "\u00c4\u00e5\u00f2\u00e0\u00eb\u00fc3_3", 
            "rotation" : [
                1.0, 
                0.0, 
                -0.0, 
                4.3312579123266914e-07
            ], 
            "translation" : [
                -0.05000000447034836, 
                -0.02952754497528076, 
                2.5578298590289705e-08
            ]
        }, 
        {
            "children" : [
                3
            ], 
            "name" : "\u0410\u041b307\u0411", 
            "rotation" : [
                -2.1855694143368964e-08, 
                0.0, 
                -0.0, 
                1.0
            ], 
            "scale" : [
                0.053391482681035995, 
                0.053391482681035995, 
                0.053391482681035995
            ], 
            "translation" : [
                0.0, 
                0.002874999772757292, 
                -7.835904147768247e-11
            ]
        }
    ], 
    "scene" : 0, 
    "scenes" : [
        {
            "name" : "Scene", 
            "nodes" : [
                10, 
                2, 
                1
            ]
        }
    ]
}
