{
    "accessors" : [
        {
            "bufferView" : 0, 
            "componentType" : 5123, 
            "count" : 2226, 
            "max" : [
                890
            ], 
            "min" : [
                0
            ], 
            "type" : "SCALAR"
        }, 
        {
            "bufferView" : 1, 
            "componentType" : 5126, 
            "count" : 891, 
            "max" : [
                7.171473979949951, 
                2.5, 
                0.1121789962053299
            ], 
            "min" : [
                0.5769230127334595, 
                0.0, 
                -11.209936141967773
            ], 
            "type" : "VEC3"
        }, 
        {
            "bufferView" : 2, 
            "componentType" : 5126, 
            "count" : 891, 
            "max" : [
                1.0, 
                1.0, 
                1.0
            ], 
            "min" : [
                -1.0, 
                -1.0, 
                -0.999969482421875
            ], 
            "type" : "VEC3"
        }, 
        {
            "bufferView" : 3, 
            "componentType" : 5126, 
            "count" : 891, 
            "max" : [
                1.0, 
                1.0, 
                0.6940478086471558, 
                1.0
            ], 
            "min" : [
                -0.9025712609291077, 
                -1.0, 
                -1.0, 
                1.0
            ], 
            "type" : "VEC4"
        }, 
        {
            "bufferView" : 4, 
            "componentType" : 5126, 
            "count" : 891, 
            "max" : [
                0.9980080127716064, 
                0.9981990000233054
            ], 
            "min" : [
                0.0019920000340789557, 
                0.09750300645828247
            ], 
            "type" : "VEC2"
        }, 
        {
            "bufferView" : 5, 
            "componentType" : 5126, 
            "count" : 891, 
            "max" : [
                1.0, 
                1.0, 
                1.0, 
                1.0
            ], 
            "min" : [
                1.0, 
                1.0, 
                1.0, 
                1.0
            ], 
            "type" : "VEC4"
        }
    ], 
    "asset" : {
        "generator" : "Khronos Blender glTF 2.0 exporter", 
        "version" : "2.0"
    }, 
    "bufferViews" : [
        {
            "buffer" : 0, 
            "byteLength" : 4452, 
            "byteOffset" : 0, 
            "target" : 34963
        }, 
        {
            "buffer" : 0, 
            "byteLength" : 10692, 
            "byteOffset" : 4452, 
            "target" : 34962
        }, 
        {
            "buffer" : 0, 
            "byteLength" : 10692, 
            "byteOffset" : 15144, 
            "target" : 34962
        }, 
        {
            "buffer" : 0, 
            "byteLength" : 14256, 
            "byteOffset" : 25836, 
            "target" : 34962
        }, 
        {
            "buffer" : 0, 
            "byteLength" : 7128, 
            "byteOffset" : 40092, 
            "target" : 34962
        }, 
        {
            "buffer" : 0, 
            "byteLength" : 14256, 
            "byteOffset" : 47220, 
            "target" : 34962
        }
    ], 
    "buffers" : [
        {
            "byteLength" : 61476, 
            "uri" : "untitled.bin"
        }
    ], 
    "cameras" : [
        {
            "name" : "Camera", 
            "perspective" : {
                "aspectRatio" : 1.7777777777777777, 
                "yfov" : 0.5033799372418416, 
                "zfar" : 100.0, 
                "znear" : 0.10000000149011612
            }, 
            "type" : "perspective"
        }
    ], 
    "materials" : [
        {
            "alphaMode" : "BLEND", 
            "name" : "typeBlinn.002", 
            "pbrMetallicRoughness" : {
                "baseColorFactor" : [
                    0.0, 
                    0.0, 
                    0.800000011920929, 
                    1.0
                ], 
                "metallicFactor" : 0.0
            }
        }
    ], 
    "meshes" : [
        {
            "name" : "typeMesh1Mesh.002", 
            "primitives" : [
                {
                    "attributes" : {
                        "COLOR_0" : 5, 
                        "NORMAL" : 2, 
                        "POSITION" : 1, 
                        "TANGENT" : 3, 
                        "TEXCOORD_0" : 4
                    }, 
                    "indices" : 0, 
                    "material" : 0
                }
            ]
        }
    ], 
    "nodes" : [
        {
            "camera" : 0, 
            "name" : "Correction_Camera", 
            "rotation" : [
                -0.7071067690849304, 
                -0.0, 
                0.0, 
                0.7071067690849304
            ]
        }, 
        {
            "children" : [
                0
            ], 
            "name" : "Camera", 
            "rotation" : [
                0.483536034822464, 
                0.33687159419059753, 
                -0.20870360732078552, 
                0.7804827094078064
            ], 
            "translation" : [
                7.481131553649902, 
                5.34366512298584, 
                6.5076398849487305
            ]
        }, 
        {
            "name" : "Lamp", 
            "rotation" : [
                0.16907575726509094, 
                0.7558802962303162, 
                -0.27217137813568115, 
                0.570947527885437
            ], 
            "scale" : [
                1.0, 
                1.0, 
                0.9999999403953552
            ], 
            "translation" : [
                4.076245307922363, 
                5.903861999511719, 
                -1.0054539442062378
            ]
        }, 
        {
            "name" : "transform1", 
            "rotation" : [
                0.7071068286895752, 
                0.0, 
                -0.0, 
                0.7071067094802856
            ], 
            "scale" : [
                0.009999999776482582, 
                0.009999999776482582, 
                0.009999999776482582
            ]
        }, 
        {
            "name" : "transform1.001", 
            "rotation" : [
                0.7071068286895752, 
                0.0, 
                -0.0, 
                0.7071067094802856
            ], 
            "scale" : [
                0.009999999776482582, 
                0.009999999776482582, 
                0.009999999776482582
            ]
        }, 
        {
            "name" : "transform2", 
            "rotation" : [
                0.7071068286895752, 
                0.0, 
                -0.0, 
                0.7071067094802856
            ], 
            "scale" : [
                0.009999999776482582, 
                0.009999999776482582, 
                0.009999999776482582
            ]
        }, 
        {
            "mesh" : 0, 
            "name" : "typeMesh1", 
            "rotation" : [
                0.7071068286895752, 
                0.0, 
                -0.0, 
                0.7071067094802856
            ], 
            "scale" : [
                0.009999999776482582, 
                0.009999999776482582, 
                0.009999999776482582
            ], 
            "translation" : [
                -0.03125828132033348, 
                5.166135297329788e-10, 
                -0.011818740516901016
            ]
        }
    ], 
    "scene" : 0, 
    "scenes" : [
        {
            "name" : "Scene", 
            "nodes" : [
                4, 
                6, 
                5, 
                3, 
                2, 
                1
            ]
        }
    ]
}
