{
  "accessors": [
    {
      "bufferView": 2,
      "componentType": 5126,
      "count": 8066,
      "max": [
        6.1327638626098633,
        1.2862869501113892,
        1.9763460159301758
      ],
      "min": [
        4.1572771072387695,
        -0.68919998407363892,
        -0.020510999485850334
      ],
      "type": "VEC3"
    },
    {
      "bufferView": 2,
      "byteOffset": 96792,
      "componentType": 5126,
      "count": 8066,
      "max": [
        0.99971908330917358,
        0.99971908330917358,
        1
      ],
      "min": [
        -0.99971908330917358,
        -0.99971908330917358,
        -1
      ],
      "type": "VEC3"
    },
    {
      "bufferView": 3,
      "componentType": 5126,
      "count": 8066,
      "max": [
        0.0727805495262146,
        0.99732339382171631,
        0.51070529222488403,
        1
      ],
      "min": [
        -0.99999147653579712,
        -0.9997096061706543,
        -0.54512345790863037,
        1
      ],
      "type": "VEC4"
    },
    {
      "bufferView": 1,
      "componentType": 5126,
      "count": 8066,
      "max": [
        1.2232999801635742,
        1.1557999849319458
      ],
      "min": [
        -0.26789999008178711,
        -0.2720000147819519
      ],
      "type": "VEC2"
    },
    {
      "bufferView": 0,
      "componentType": 5125,
      "count": 47616,
      "max": [
        8065
      ],
      "min": [
        0
      ],
      "type": "SCALAR"
    },
    {
      "bufferView": 2,
      "byteOffset": 193584,
      "componentType": 5126,
      "count": 8066,
      "max": [
        -3.9807689189910889,
        1.2862869501113892,
        1.9763460159301758
      ],
      "min": [
        -5.9562559127807617,
        -0.68919998407363892,
        -0.020510999485850334
      ],
      "type": "VEC3"
    },
    {
      "bufferView": 2,
      "byteOffset": 290376,
      "componentType": 5126,
      "count": 8066,
      "max": [
        0.99971908330917358,
        0.99971908330917358,
        1
      ],
      "min": [
        -0.99971908330917358,
        -0.99971908330917358,
        -1
      ],
      "type": "VEC3"
    },
    {
      "bufferView": 3,
      "byteOffset": 129056,
      "componentType": 5126,
      "count": 8066,
      "max": [
        0.072763212025165558,
        0.99732333421707153,
        0.5116734504699707,
        1
      ],
      "min": [
        -0.99999314546585083,
        -0.99971920251846313,
        -0.54511946439743042,
        1
      ],
      "type": "VEC4"
    },
    {
      "bufferView": 1,
      "byteOffset": 64528,
      "componentType": 5126,
      "count": 8066,
      "max": [
        1.2436000108718872,
        1.1475000381469727
      ],
      "min": [
        -0.18250000476837158,
        -0.28040000796318054
      ],
      "type": "VEC2"
    },
    {
      "bufferView": 0,
      "byteOffset": 190464,
      "componentType": 5125,
      "count": 47616,
      "max": [
        8065
      ],
      "min": [
        0
      ],
      "type": "SCALAR"
    },
    {
      "bufferView": 2,
      "byteOffset": 387168,
      "componentType": 5126,
      "count": 8192,
      "max": [
        3.479949951171875,
        1.2862869501113892,
        1.9763460159301758
      ],
      "min": [
        1.5044629573822021,
        -0.68919998407363892,
        -0.020510999485850334
      ],
      "type": "VEC3"
    },
    {
      "bufferView": 2,
      "byteOffset": 485472,
      "componentType": 5126,
      "count": 8192,
      "max": [
        0.99971908330917358,
        0.99971908330917358,
        1
      ],
      "min": [
        -0.99971908330917358,
        -0.99971908330917358,
        -1
      ],
      "type": "VEC3"
    },
    {
      "bufferView": 3,
      "byteOffset": 258112,
      "componentType": 5126,
      "count": 8192,
      "max": [
        0.87373483180999756,
        0.99911540746688843,
        0.81119900941848755,
        1
      ],
      "min": [
        -0.99999445676803589,
        -0.99980366230010986,
        -0.85903549194335938,
        -1
      ],
      "type": "VEC4"
    },
    {
      "bufferView": 1,
      "byteOffset": 129056,
      "componentType": 5126,
      "count": 8192,
      "max": [
        1.0542999505996704,
        1.0174000263214111
      ],
      "min": [
        -0.045699998736381531,
        -0.060899998992681503
      ],
      "type": "VEC2"
    },
    {
      "bufferView": 0,
      "byteOffset": 380928,
      "componentType": 5125,
      "count": 47616,
      "max": [
        8191
      ],
      "min": [
        0
      ],
      "type": "SCALAR"
    },
    {
      "bufferView": 2,
      "byteOffset": 583776,
      "componentType": 5126,
      "count": 8066,
      "max": [
        0.9965050220489502,
        1.2862869501113892,
        1.9763460159301758
      ],
      "min": [
        -0.97898197174072266,
        -0.68919998407363892,
        -0.020510999485850334
      ],
      "type": "VEC3"
    },
    {
      "bufferView": 2,
      "byteOffset": 680568,
      "componentType": 5126,
      "count": 8066,
      "max": [
        0.99971908330917358,
        0.99971908330917358,
        1
      ],
      "min": [
        -0.99971908330917358,
        -0.99971908330917358,
        -1
      ],
      "type": "VEC3"
    },
    {
      "bufferView": 3,
      "byteOffset": 389184,
      "componentType": 5126,
      "count": 8066,
      "max": [
        0.072777852416038513,
        0.99732339382171631,
        0.51069504022598267,
        1
      ],
      "min": [
        -0.999991774559021,
        -0.99970966577529907,
        -0.54512274265289307,
        1
      ],
      "type": "VEC4"
    },
    {
      "bufferView": 1,
      "byteOffset": 194592,
      "componentType": 5126,
      "count": 8066,
      "max": [
        1.2489999532699585,
        1.142300009727478
      ],
      "min": [
        -0.24230000376701355,
        -0.28549998998641968
      ],
      "type": "VEC2"
    },
    {
      "bufferView": 0,
      "byteOffset": 571392,
      "componentType": 5125,
      "count": 47616,
      "max": [
        8065
      ],
      "min": [
        0
      ],
      "type": "SCALAR"
    },
    {
      "bufferView": 2,
      "byteOffset": 777360,
      "componentType": 5126,
      "count": 8066,
      "max": [
        -1.4211939573287964,
        1.2862869501113892,
        1.9763460159301758
      ],
      "min": [
        -3.3966810703277588,
        -0.68919998407363892,
        -0.020510999485850334
      ],
      "type": "VEC3"
    },
    {
      "bufferView": 2,
      "byteOffset": 874152,
      "componentType": 5126,
      "count": 8066,
      "max": [
        0.99971908330917358,
        0.99971908330917358,
        1
      ],
      "min": [
        -0.99971908330917358,
        -0.99971908330917358,
        -1
      ],
      "type": "VEC3"
    },
    {
      "bufferView": 3,
      "byteOffset": 518240,
      "componentType": 5126,
      "count": 8066,
      "max": [
        0.084089964628219604,
        0.99732339382171631,
        0.51112771034240723,
        1
      ],
      "min": [
        -0.99998974800109863,
        -0.9997096061706543,
        -0.54511857032775879,
        1
      ],
      "type": "VEC4"
    },
    {
      "bufferView": 1,
      "byteOffset": 259120,
      "componentType": 5126,
      "count": 8066,
      "max": [
        1.2684999704360962,
        1.1237000226974487
      ],
      "min": [
        -0.21559999883174896,
        -0.30419999361038208
      ],
      "type": "VEC2"
    },
    {
      "bufferView": 0,
      "byteOffset": 761856,
      "componentType": 5125,
      "count": 47616,
      "max": [
        8065
      ],
      "min": [
        0
      ],
      "type": "SCALAR"
    }
  ],
  "asset": {
    "extras": {
      "author": "Robukan (https://sketchfab.com/robukan)",
      "license": "CC-BY-4.0 (http://creativecommons.org/licenses/by/4.0/)",
      "source": "https://sketchfab.com/models/25d8e10980e04dcda311255e4ac478f4",
      "title": "Emojis"
    },
    "generator": "Sketchfab-3.20.7",
    "version": "2.0"
  },
  "bufferViews": [
    {
      "buffer": 0,
      "byteLength": 952320,
      "byteOffset": 0,
      "name": "floatBufferViews",
      "target": 34963
    },
    {
      "buffer": 0,
      "byteLength": 323648,
      "byteOffset": 952320,
      "byteStride": 8,
      "name": "floatBufferViews",
      "target": 34962
    },
    {
      "buffer": 0,
      "byteLength": 970944,
      "byteOffset": 1275968,
      "byteStride": 12,
      "name": "floatBufferViews",
      "target": 34962
    },
    {
      "buffer": 0,
      "byteLength": 647296,
      "byteOffset": 2246912,
      "byteStride": 16,
      "name": "floatBufferViews",
      "target": 34962
    }
  ],
  "buffers": [
    {
      "byteLength": 2894208,
      "uri": "scene.bin"
    }
  ],
  "extensionsUsed": [
    "KHR_materials_unlit"
  ],
  "images": [
    {
      "uri": "textures/Material.001_far7an.jpg_baseColor.jpg"
    },
    {
      "uri": "textures/Material.001_3yon_2lob.jpg_baseColor.jpg"
    },
    {
      "uri": "textures/Material.001_8adab.jpg_baseColor.jpg"
    },
    {
      "uri": "textures/Material.001_baseColor.jpg"
    },
    {
      "uri": "textures/Material.001_za2ra.jpg_baseColor.jpg"
    }
  ],
  "materials": [
    {
      "doubleSided": true,
      "emissiveFactor": [
        0,
        0,
        0
      ],
      "extensions": {
        "KHR_materials_unlit": {}
      },
      "name": "Material.001",
      "pbrMetallicRoughness": {
        "baseColorFactor": [
          1,
          1,
          1,
          1
        ],
        "baseColorTexture": {
          "index": 3,
          "texCoord": 0
        },
        "metallicFactor": 0,
        "roughnessFactor": 1
      }
    },
    {
      "doubleSided": true,
      "emissiveFactor": [
        0,
        0,
        0
      ],
      "extensions": {
        "KHR_materials_unlit": {}
      },
      "name": "Material.001_3yon_2lob.jpg",
      "pbrMetallicRoughness": {
        "baseColorFactor": [
          1,
          1,
          1,
          1
        ],
        "baseColorTexture": {
          "index": 1,
          "texCoord": 0
        },
        "metallicFactor": 0,
        "roughnessFactor": 1
      }
    },
    {
      "doubleSided": true,
      "emissiveFactor": [
        0,
        0,
        0
      ],
      "extensions": {
        "KHR_materials_unlit": {}
      },
      "name": "Material.001_8adab.jpg",
      "pbrMetallicRoughness": {
        "baseColorFactor": [
          1,
          1,
          1,
          1
        ],
        "baseColorTexture": {
          "index": 2,
          "texCoord": 0
        },
        "metallicFactor": 0,
        "roughnessFactor": 1
      }
    },
    {
      "doubleSided": true,
      "emissiveFactor": [
        0,
        0,
        0
      ],
      "extensions": {
        "KHR_materials_unlit": {}
      },
      "name": "Material.001_far7an.jpg",
      "pbrMetallicRoughness": {
        "baseColorFactor": [
          1,
          1,
          1,
          1
        ],
        "baseColorTexture": {
          "index": 0,
          "texCoord": 0
        },
        "metallicFactor": 0,
        "roughnessFactor": 1
      }
    },
    {
      "doubleSided": true,
      "emissiveFactor": [
        0,
        0,
        0
      ],
      "extensions": {
        "KHR_materials_unlit": {}
      },
      "name": "Material.001_za2ra.jpg",
      "pbrMetallicRoughness": {
        "baseColorFactor": [
          1,
          1,
          1,
          1
        ],
        "baseColorTexture": {
          "index": 4,
          "texCoord": 0
        },
        "metallicFactor": 0,
        "roughnessFactor": 1
      }
    }
  ],
  "meshes": [
    {
      "primitives": [
        {
          "attributes": {
            "NORMAL": 1,
            "POSITION": 0,
            "TANGENT": 2,
            "TEXCOORD_0": 3
          },
          "indices": 4,
          "material": 0,
          "mode": 4
        }
      ]
    },
    {
      "primitives": [
        {
          "attributes": {
            "NORMAL": 6,
            "POSITION": 5,
            "TANGENT": 7,
            "TEXCOORD_0": 8
          },
          "indices": 9,
          "material": 1,
          "mode": 4
        }
      ]
    },
    {
      "primitives": [
        {
          "attributes": {
            "NORMAL": 11,
            "POSITION": 10,
            "TANGENT": 12,
            "TEXCOORD_0": 13
          },
          "indices": 14,
          "material": 2,
          "mode": 4
        }
      ]
    },
    {
      "primitives": [
        {
          "attributes": {
            "NORMAL": 16,
            "POSITION": 15,
            "TANGENT": 17,
            "TEXCOORD_0": 18
          },
          "indices": 19,
          "material": 3,
          "mode": 4
        }
      ]
    },
    {
      "primitives": [
        {
          "attributes": {
            "NORMAL": 21,
            "POSITION": 20,
            "TANGENT": 22,
            "TEXCOORD_0": 23
          },
          "indices": 24,
          "material": 4,
          "mode": 4
        }
      ]
    }
  ],
  "nodes": [
    {
      "children": [
        1
      ],
      "name": "RootNode (gltf orientation matrix)",
      "rotation": [
        -0.70710678118654746,
        -0,
        -0,
        0.70710678118654757
      ]
    },
    {
      "children": [
        2
      ],
      "matrix": [
        -1,
        0,
        0,
        0,
        0,
        -0.99999827146530151,
        -0.0018746288260444999,
        0,
        0,
        -0.0018746288260444999,
        0.99999827146530151,
        0,
        0.17650556564331055,
        0.59892076253890991,
        0.00056137749925255775,
        1
      ],
      "name": "RootNode (model correction matrix)"
    },
    {
      "children": [
        3,
        4,
        5,
        6,
        7
      ],
      "name": "emojis.obj.cleaner.materialmerger.gles"
    },
    {
      "mesh": 0,
      "name": ""
    }
  ],
  "samplers": [
    {
      "magFilter": 9729,
      "minFilter": 9987,
      "wrapS": 10497,
      "wrapT": 10497
    }
  ],
  "scene": 0,
  "scenes": [
    {
      "name": "OSG_Scene",
      "nodes": [
        0
      ]
    }
  ],
  "textures": [
    {
      "sampler": 0,
      "source": 0
    },
        {
      "sampler": 1,
      "source": 1
    }
  ]
}
