{
    "accessors" : [
        {
            "bufferView" : 0, 
            "componentType" : 5123, 
            "count" : 8328, 
            "max" : [
                3329
            ], 
            "min" : [
                0
            ], 
            "type" : "SCALAR"
        }, 
        {
            "bufferView" : 1, 
            "componentType" : 5126, 
            "count" : 3330, 
            "max" : [
                56.08134841918945, 
                2.5, 
                0.30588600039482117
            ], 
            "min" : [
                0.8267199993133545, 
                0.0, 
                -12.541336059570312
            ], 
            "type" : "VEC3"
        }, 
        {
            "bufferView" : 2, 
            "componentType" : 5126, 
            "count" : 3330, 
            "max" : [
                1.0, 
                1.0, 
                1.0
            ], 
            "min" : [
                -1.0, 
                -1.0, 
                -1.0
            ], 
            "type" : "VEC3"
        }, 
        {
            "bufferView" : 3, 
            "componentType" : 5126, 
            "count" : 3330, 
            "max" : [
                1.0, 
                1.0, 
                0.9562861323356628, 
                1.0
            ], 
            "min" : [
                -0.9115767478942871, 
                -1.0, 
                -1.0, 
                1.0
            ], 
            "type" : "VEC4"
        }, 
        {
            "bufferView" : 4, 
            "componentType" : 5126, 
            "count" : 3330, 
            "max" : [
                0.9402790069580078, 
                0.998007999965921
            ], 
            "min" : [
                0.0018769999733194709, 
                0.0019919872283935547
            ], 
            "type" : "VEC2"
        }, 
        {
            "bufferView" : 5, 
            "componentType" : 5126, 
            "count" : 3330, 
            "max" : [
                1.0, 
                1.0, 
                1.0, 
                1.0
            ], 
            "min" : [
                1.0, 
                1.0, 
                1.0, 
                1.0
            ], 
            "type" : "VEC4"
        }, 
        {
            "bufferView" : 6, 
            "componentType" : 5123, 
            "count" : 1440, 
            "max" : [
                329
            ], 
            "min" : [
                0
            ], 
            "type" : "SCALAR"
        }, 
        {
            "bufferView" : 7, 
            "componentType" : 5126, 
            "count" : 330, 
            "max" : [
                0.5, 
                0.5, 
                0.0
            ], 
            "min" : [
                -0.5, 
                -0.5, 
                -0.006453000009059906
            ], 
            "type" : "VEC3"
        }, 
        {
            "bufferView" : 8, 
            "componentType" : 5126, 
            "count" : 330, 
            "max" : [
                1.0, 
                1.0, 
                1.0
            ], 
            "min" : [
                -1.0, 
                -1.0, 
                -1.0
            ], 
            "type" : "VEC3"
        }, 
        {
            "bufferView" : 9, 
            "componentType" : 5126, 
            "count" : 330, 
            "max" : [
                1.0, 
                0.0, 
                -0.0, 
                1.0
            ], 
            "min" : [
                1.0, 
                0.0, 
                -0.0, 
                1.0
            ], 
            "type" : "VEC4"
        }, 
        {
            "bufferView" : 10, 
            "componentType" : 5126, 
            "count" : 330, 
            "max" : [
                1.0, 
                1.0
            ], 
            "min" : [
                0.0, 
                0.0
            ], 
            "type" : "VEC2"
        }, 
        {
            "bufferView" : 11, 
            "componentType" : 5123, 
            "count" : 3366, 
            "max" : [
                1561
            ], 
            "min" : [
                0
            ], 
            "type" : "SCALAR"
        }, 
        {
            "bufferView" : 12, 
            "componentType" : 5126, 
            "count" : 1562, 
            "max" : [
                34.74519348144531, 
                2.5, 
                0.12820500135421753
            ], 
            "min" : [
                0.4246790111064911, 
                0.0, 
                -11.009614944458008
            ], 
            "type" : "VEC3"
        }, 
        {
            "bufferView" : 13, 
            "componentType" : 5126, 
            "count" : 1562, 
            "max" : [
                1.0, 
                1.0, 
                1.0
            ], 
            "min" : [
                -1.0, 
                -1.0, 
                -1.0
            ], 
            "type" : "VEC3"
        }, 
        {
            "bufferView" : 14, 
            "componentType" : 5126, 
            "count" : 1562, 
            "max" : [
                1.0, 
                1.0, 
                1.0, 
                1.0
            ], 
            "min" : [
                -0.7168328762054443, 
                -1.0, 
                -1.0, 
                1.0
            ], 
            "type" : "VEC4"
        }, 
        {
            "bufferView" : 15, 
            "componentType" : 5126, 
            "count" : 1562, 
            "max" : [
                0.9980080127716064, 
                0.9980579999973997
            ], 
            "min" : [
                0.0019920000340789557, 
                0.026974022388458252
            ], 
            "type" : "VEC2"
        }, 
        {
            "bufferView" : 16, 
            "componentType" : 5126, 
            "count" : 1562, 
            "max" : [
                1.0, 
                1.0, 
                1.0, 
                1.0
            ], 
            "min" : [
                1.0, 
                1.0, 
                1.0, 
                1.0
            ], 
            "type" : "VEC4"
        }
    ], 
    "asset" : {
        "generator" : "Khronos Blender glTF 2.0 exporter", 
        "version" : "2.0"
    }, 
    "bufferViews" : [
        {
            "buffer" : 0, 
            "byteLength" : 16656, 
            "byteOffset" : 0, 
            "target" : 34963
        }, 
        {
            "buffer" : 0, 
            "byteLength" : 39960, 
            "byteOffset" : 16656, 
            "target" : 34962
        }, 
        {
            "buffer" : 0, 
            "byteLength" : 39960, 
            "byteOffset" : 56616, 
            "target" : 34962
        }, 
        {
            "buffer" : 0, 
            "byteLength" : 53280, 
            "byteOffset" : 96576, 
            "target" : 34962
        }, 
        {
            "buffer" : 0, 
            "byteLength" : 26640, 
            "byteOffset" : 149856, 
            "target" : 34962
        }, 
        {
            "buffer" : 0, 
            "byteLength" : 53280, 
            "byteOffset" : 176496, 
            "target" : 34962
        }, 
        {
            "buffer" : 0, 
            "byteLength" : 2880, 
            "byteOffset" : 229776, 
            "target" : 34963
        }, 
        {
            "buffer" : 0, 
            "byteLength" : 3960, 
            "byteOffset" : 232656, 
            "target" : 34962
        }, 
        {
            "buffer" : 0, 
            "byteLength" : 3960, 
            "byteOffset" : 236616, 
            "target" : 34962
        }, 
        {
            "buffer" : 0, 
            "byteLength" : 5280, 
            "byteOffset" : 240576, 
            "target" : 34962
        }, 
        {
            "buffer" : 0, 
            "byteLength" : 2640, 
            "byteOffset" : 245856, 
            "target" : 34962
        }, 
        {
            "buffer" : 0, 
            "byteLength" : 6732, 
            "byteOffset" : 248496, 
            "target" : 34963
        }, 
        {
            "buffer" : 0, 
            "byteLength" : 18744, 
            "byteOffset" : 255228, 
            "target" : 34962
        }, 
        {
            "buffer" : 0, 
            "byteLength" : 18744, 
            "byteOffset" : 273972, 
            "target" : 34962
        }, 
        {
            "buffer" : 0, 
            "byteLength" : 24992, 
            "byteOffset" : 292716, 
            "target" : 34962
        }, 
        {
            "buffer" : 0, 
            "byteLength" : 12496, 
            "byteOffset" : 317708, 
            "target" : 34962
        }, 
        {
            "buffer" : 0, 
            "byteLength" : 24992, 
            "byteOffset" : 330204, 
            "target" : 34962
        }
    ], 
    "buffers" : [
        {
            "byteLength" : 355196, 
            "uri" : "SNPlaingltf.bin"
        }
    ], 
    "cameras" : [
        {
            "name" : "Camera", 
            "perspective" : {
                "aspectRatio" : 1.7777777777777777, 
                "yfov" : 0.5033799372418416, 
                "zfar" : 100.0, 
                "znear" : 0.10000000149011612
            }, 
            "type" : "perspective"
        }
    ], 
    "materials" : [
        {
            "alphaMode" : "BLEND", 
            "name" : "lambert2.003", 
            "pbrMetallicRoughness" : {
                "baseColorFactor" : [
                    0.800000011920929, 
                    0.0, 
                    0.0, 
                    1.0
                ], 
                "metallicFactor" : 0.0
            }
        }, 
        {
            "alphaMode" : "BLEND", 
            "name" : "typeBlinn.004", 
            "pbrMetallicRoughness" : {
                "baseColorFactor" : [
                    0.800000011920929, 
                    0.800000011920929, 
                    0.800000011920929, 
                    1.0
                ], 
                "metallicFactor" : 0.0
            }
        }
    ], 
    "meshes" : [
        {
            "name" : "typeMesh1Mesh.007", 
            "primitives" : [
                {
                    "attributes" : {
                        "COLOR_0" : 5, 
                        "NORMAL" : 2, 
                        "POSITION" : 1, 
                        "TANGENT" : 3, 
                        "TEXCOORD_0" : 4
                    }, 
                    "indices" : 0, 
                    "material" : 1
                }
            ]
        }, 
        {
            "name" : "pPlane1Mesh.002", 
            "primitives" : [
                {
                    "attributes" : {
                        "NORMAL" : 8, 
                        "POSITION" : 7, 
                        "TANGENT" : 9, 
                        "TEXCOORD_0" : 10
                    }, 
                    "indices" : 6, 
                    "material" : 1
                }
            ]
        }, 
        {
            "name" : "typeMesh2Mesh.002", 
            "primitives" : [
                {
                    "attributes" : {
                        "COLOR_0" : 16, 
                        "NORMAL" : 13, 
                        "POSITION" : 12, 
                        "TANGENT" : 14, 
                        "TEXCOORD_0" : 15
                    }, 
                    "indices" : 11, 
                    "material" : 0
                }
            ]
        }
    ], 
    "nodes" : [
        {
            "camera" : 0, 
            "name" : "Correction_Camera", 
            "rotation" : [
                -0.7071067690849304, 
                -0.0, 
                0.0, 
                0.7071067690849304
            ]
        }, 
        {
            "children" : [
                0
            ], 
            "name" : "Camera", 
            "rotation" : [
                0.483536034822464, 
                0.33687159419059753, 
                -0.20870360732078552, 
                0.7804827094078064
            ], 
            "translation" : [
                7.481131553649902, 
                5.34366512298584, 
                6.5076398849487305
            ]
        }, 
        {
            "name" : "Lamp", 
            "rotation" : [
                0.16907575726509094, 
                0.7558802962303162, 
                -0.27217137813568115, 
                0.570947527885437
            ], 
            "scale" : [
                1.0, 
                1.0, 
                0.9999999403953552
            ], 
            "translation" : [
                4.076245307922363, 
                5.903861999511719, 
                -1.0054539442062378
            ]
        }, 
        {
            "name" : "place3dTexture4", 
            "rotation" : [
                0.7071068286895752, 
                0.0, 
                -0.0, 
                0.7071067094802856
            ], 
            "scale" : [
                0.009999999776482582, 
                0.009999999776482582, 
                0.009999999776482582
            ], 
            "translation" : [
                -0.10438353568315506, 
                4.556673260935895e-09, 
                -0.10424453765153885
            ]
        }, 
        {
            "mesh" : 1, 
            "name" : "pPlane1", 
            "rotation" : [
                0.7071068286895752, 
                0.0, 
                -0.0, 
                0.7071067094802856
            ], 
            "scale" : [
                0.24011319875717163, 
                0.24011319875717163, 
                0.24011319875717163
            ], 
            "translation" : [
                -5.2089995733695105e-05, 
                -9.976003639167175e-05, 
                0.001047499943524599
            ]
        }, 
        {
            "name" : "transform1", 
            "rotation" : [
                0.7071068286895752, 
                0.0, 
                -0.0, 
                0.7071067094802856
            ], 
            "scale" : [
                0.009999999776482582, 
                0.009999999776482582, 
                0.009999999776482582
            ]
        }, 
        {
            "name" : "transform1.001", 
            "rotation" : [
                0.7071068286895752, 
                0.0, 
                -0.0, 
                0.7071067094802856
            ], 
            "scale" : [
                0.009999999776482582, 
                0.009999999776482582, 
                0.009999999776482582
            ]
        }, 
        {
            "name" : "transform2", 
            "rotation" : [
                0.7071068286895752, 
                0.0, 
                -0.0, 
                0.7071067094802856
            ], 
            "scale" : [
                0.009999999776482582, 
                0.009999999776482582, 
                0.009999999776482582
            ]
        }, 
        {
            "name" : "transform2.001", 
            "rotation" : [
                0.7071068286895752, 
                0.0, 
                -0.0, 
                0.7071067094802856
            ], 
            "scale" : [
                0.009999999776482582, 
                0.009999999776482582, 
                0.009999999776482582
            ]
        }, 
        {
            "mesh" : 0, 
            "name" : "typeMesh1", 
            "rotation" : [
                2.1855694143368964e-08, 
                0.0, 
                -0.0, 
                1.0
            ], 
            "scale" : [
                0.0016477199969813228, 
                0.0016477199969813228, 
                0.0016477199969813228
            ], 
            "translation" : [
                -0.11230326443910599, 
                0.0019187842262908816, 
                -0.09534917771816254
            ]
        }, 
        {
            "mesh" : 2, 
            "name" : "typeMesh2", 
            "rotation" : [
                2.1855694143368964e-08, 
                0.0, 
                -0.0, 
                1.0
            ], 
            "scale" : [
                0.0016544399550184608, 
                0.0016544399550184608, 
                0.0016544399550184608
            ], 
            "translation" : [
                -0.018058909103274345, 
                0.0018602642230689526, 
                -0.09599679708480835
            ]
        }
    ], 
    "scene" : 0, 
    "scenes" : [
        {
            "name" : "Scene", 
            "nodes" : [
                8, 
                10, 
                3, 
                6, 
                9, 
                4, 
                7, 
                5, 
                2, 
                1
            ]
        }
    ]
}
